<?xml version="1.0" encoding="UTF-8"?>
<!DOCTYPE svg PUBLIC "-//W3C//DTD SVG 1.1//EN" "http://www.w3.org/Graphics/SVG/1.1/DTD/svg11.dtd">
<!-- Creator: CorelDRAW X7 -->
<svg xmlns="http://www.w3.org/2000/svg" xml:space="preserve" width="512px" height="512px" version="1.1" style="shape-rendering:geometricPrecision; text-rendering:geometricPrecision; image-rendering:optimizeQuality; fill-rule:evenodd; clip-rule:evenodd"
viewBox="0 0 512 512"
 xmlns:xlink="http://www.w3.org/1999/xlink">
 <defs>
  <style type="text/css">
   <![CDATA[
    .fil0 {fill:#EF161E}
    .fil1 {fill:white;fill-rule:nonzero}
   ]]>
  </style>
 </defs>
 <g id="Camada_x0020_1">
  <metadata id="CorelCorpID_0Corel-Layer"/>
  <circle class="fil0" cx="256" cy="256" r="256"/>
  <path class="fil1" d="M137 314l59 -6c3,20 10,34 21,43 11,9 25,14 44,14 19,0 34,-4 43,-12 10,-8 15,-18 15,-29 0,-7 -2,-13 -6,-18 -4,-5 -11,-9 -22,-13 -7,-2 -23,-7 -48,-13 -32,-8 -54,-18 -67,-30 -19,-16 -28,-36 -28,-60 0,-15 5,-29 13,-43 9,-13 21,-23 37,-30 16,-7 36,-10 59,-10 37,0 65,8 84,25 19,16 29,38 30,66l-61 2c-2,-15 -8,-26 -16,-33 -8,-7 -21,-10 -38,-10 -17,0 -31,3 -41,10 -6,5 -9,11 -9,19 0,7 3,13 9,18 7,7 26,13 55,20 29,7 51,14 65,22 14,7 25,17 33,30 8,13 12,29 12,48 0,17 -5,33 -15,48 -9,15 -23,26 -40,33 -17,7 -39,11 -65,11 -38,0 -67,-9 -87,-26 -20,-18 -32,-43 -36,-76z"/>
 </g>
</svg>
